<svg width="40" height="40" viewBox="0 0 40 40" fill="none" xmlns="http://www.w3.org/2000/svg">
<path d="M40 20C40 31.0457 31.0457 40 20 40C8.9543 40 0 31.0457 0 20C0 8.9543 8.9543 0 20 0C31.0457 0 40 8.9543 40 20Z" fill="#BBB4B4" fill-opacity="0.5"/>
<path d="M33 19.5C33 26.4036 27.4036 32 20.5 32C13.5964 32 8 26.4036 8 19.5C8 12.5964 13.5964 7 20.5 7C27.4036 7 33 12.5964 33 19.5Z" fill="#B8B6B6"/>
<path d="M20.494 32C27.3451 32 33 26.3424 33 19.5C33 12.6576 27.333 7 20.4819 7C13.6428 7 8 12.6576 8 19.5C8 26.3424 13.6549 32 20.494 32ZM20.494 29.5097C14.9478 29.5097 10.5133 25.0488 10.5133 19.5C10.5133 13.9512 14.9478 9.50242 20.4819 9.50242C26.028 9.50242 30.4867 13.9512 30.4988 19.5C30.5109 25.0488 26.0401 29.5097 20.494 29.5097ZM16.0353 20.6485H19.3461V23.9729C19.3461 24.6378 19.8173 25.1093 20.4698 25.1093C21.1464 25.1093 21.6298 24.6378 21.6298 23.9729V20.6485H24.9526C25.6172 20.6485 26.1005 20.177 26.1005 19.5121C26.1005 18.8472 25.6293 18.3636 24.9526 18.3636H21.6298V15.0392C21.6298 14.3622 21.1464 13.8907 20.4698 13.8907C19.8173 13.8907 19.3461 14.3622 19.3461 15.0392V18.3636H16.0353C15.3465 18.3636 14.8753 18.8472 14.8753 19.5121C14.8753 20.177 15.3586 20.6485 16.0353 20.6485Z" fill="#1C1C1E"/>
</svg>
