<svg width="358" height="88" viewBox="0 0 358 88" fill="none" xmlns="http://www.w3.org/2000/svg">
<g filter="url(#filter0_bd_1_485)">
<rect y="10" width="358" height="48" rx="20" fill="url(#paint0_linear_1_485)"/>
<rect x="0.5" y="10.5" width="357" height="47" rx="19.5" stroke="white" style="mix-blend-mode:overlay"/>
<mask id="path-3-outside-1_1_485" maskUnits="userSpaceOnUse" x="115" y="26" width="119" height="20" fill="black">
<rect fill="white" x="115" y="26" width="119" height="20"/>
<path d="M120.665 44.242C119.624 44.242 118.121 44.1613 116.155 44L116.419 38.654L116.155 28.82H122.029C124.009 28.82 125.557 29.414 126.671 30.602C127.786 31.79 128.343 33.44 128.343 35.552C128.343 38.2213 127.654 40.3407 126.275 41.91C124.897 43.4647 123.027 44.242 120.665 44.242ZM121.237 31.196C120.269 31.196 119.587 31.2033 119.191 31.218L118.971 38.28L119.125 41.844C120.357 41.932 121.186 41.976 121.611 41.976C122.77 41.976 123.679 41.5067 124.339 40.568C125.014 39.6293 125.351 38.2653 125.351 36.476C125.351 34.6867 125.021 33.3593 124.361 32.494C123.716 31.6287 122.675 31.196 121.237 31.196ZM132.821 32.802L132.557 38.28L132.799 43.45L129.851 44L130.115 38.654L129.873 33.352L132.821 32.802ZM129.719 29.59C129.719 29.0913 129.909 28.6513 130.291 28.27C130.672 27.874 131.112 27.676 131.611 27.676C132.109 27.676 132.491 27.8153 132.755 28.094C133.019 28.358 133.151 28.7613 133.151 29.304C133.151 29.8467 132.96 30.316 132.579 30.712C132.212 31.0933 131.779 31.284 131.281 31.284C130.797 31.284 130.415 31.1227 130.137 30.8C129.858 30.4773 129.719 30.074 129.719 29.59ZM134.594 33.374L137.256 32.802C137.388 33.9313 137.476 35.002 137.52 36.014C138.854 33.946 140.108 32.912 141.282 32.912L141.04 36.344C140.189 36.344 139.514 36.4247 139.016 36.586C138.532 36.7327 138.033 37.0333 137.52 37.488V38.28L137.762 43.45L134.814 44L135.078 38.654C135.019 36.6887 134.858 34.9287 134.594 33.374ZM146.23 41.756C146.655 41.756 147.102 41.646 147.572 41.426C148.041 41.206 148.408 40.986 148.672 40.766L149.068 40.436L150.08 41.668C149.933 41.9173 149.706 42.2033 149.398 42.526C149.09 42.8487 148.774 43.1273 148.452 43.362C148.144 43.582 147.726 43.7873 147.198 43.978C146.684 44.154 146.149 44.242 145.592 44.242C144.404 44.242 143.436 43.7947 142.688 42.9C141.94 41.9907 141.566 40.8247 141.566 39.402C141.566 37.6127 142.086 36.0433 143.128 34.694C144.169 33.3447 145.386 32.67 146.78 32.67C147.85 32.67 148.679 32.9707 149.266 33.572C149.867 34.1733 150.168 35.0167 150.168 36.102C150.168 36.7473 150.058 37.4807 149.838 38.302L149.398 38.764L143.898 39.27C144.147 40.9273 144.924 41.756 146.23 41.756ZM146.23 34.936C145.584 34.936 145.042 35.2 144.602 35.728C144.162 36.2413 143.905 36.9013 143.832 37.708L147.572 37.246C147.616 36.9087 147.638 36.63 147.638 36.41C147.638 35.4273 147.168 34.936 146.23 34.936ZM155.464 35.53C154.819 35.53 154.32 35.7647 153.968 36.234C153.616 36.6887 153.44 37.3927 153.44 38.346C153.44 39.2993 153.616 40.0693 153.968 40.656C154.335 41.228 154.863 41.514 155.552 41.514C155.904 41.514 156.249 41.404 156.586 41.184C156.923 40.964 157.18 40.744 157.356 40.524L157.598 40.172L158.698 41.316C158.654 41.3893 158.595 41.492 158.522 41.624C158.463 41.756 158.302 41.9907 158.038 42.328C157.789 42.6653 157.517 42.966 157.224 43.23C156.945 43.4793 156.579 43.714 156.124 43.934C155.669 44.1393 155.193 44.242 154.694 44.242C153.594 44.242 152.699 43.7947 152.01 42.9C151.321 42.0053 150.976 40.8393 150.976 39.402C150.976 37.6127 151.497 36.0433 152.538 34.694C153.579 33.3447 154.797 32.67 156.19 32.67C156.615 32.67 157.041 32.736 157.466 32.868C157.891 32.9853 158.324 33.176 158.764 33.44L157.224 36.146C156.696 35.7353 156.109 35.53 155.464 35.53ZM160.595 33.352V30.954L163.565 30.382L163.279 33.352H165.941L165.699 35.156H163.191L163.081 39.754C163.081 40.4433 163.147 40.9053 163.279 41.14C163.411 41.36 163.653 41.47 164.005 41.47C164.357 41.47 164.826 41.3893 165.413 41.228L165.545 42.79C164.577 43.5967 163.726 44 162.993 44C162.259 44 161.658 43.736 161.189 43.208C160.719 42.6653 160.485 41.9613 160.485 41.096L160.617 38.632L160.595 35.156H159.077L159.319 33.352H160.595ZM175.394 28.82C176.802 28.82 177.916 29.1427 178.738 29.788C179.559 30.4187 179.97 31.2693 179.97 32.34C179.97 34.056 179.266 35.2513 177.858 35.926C179.764 36.586 180.718 37.8033 180.718 39.578C180.718 40.9127 180.146 42.0273 179.002 42.922C177.858 43.802 176.42 44.242 174.69 44.242C173.78 44.242 172.424 44.1613 170.62 44L170.884 38.654L170.62 28.82H175.394ZM175.108 37.466H173.326L173.304 38.28L173.458 41.866C174.308 41.9393 174.961 41.976 175.416 41.976C176.193 41.976 176.794 41.7853 177.22 41.404C177.66 41.008 177.88 40.436 177.88 39.688C177.88 38.94 177.66 38.3827 177.22 38.016C176.78 37.6493 176.076 37.466 175.108 37.466ZM174.602 31.042H173.524L173.392 35.332H174.822C175.57 35.332 176.142 35.134 176.538 34.738C176.934 34.3273 177.132 33.748 177.132 33C177.132 31.6947 176.288 31.042 174.602 31.042ZM182.247 33.374L184.909 32.802C185.041 33.9313 185.129 35.002 185.173 36.014C186.508 33.946 187.762 32.912 188.935 32.912L188.693 36.344C187.843 36.344 187.168 36.4247 186.669 36.586C186.185 36.7327 185.687 37.0333 185.173 37.488V38.28L185.415 43.45L182.467 44L182.731 38.654C182.673 36.6887 182.511 34.9287 182.247 33.374ZM189.263 39.402C189.263 37.5247 189.769 35.9333 190.781 34.628C191.793 33.3227 192.974 32.67 194.323 32.67C195.687 32.67 196.743 33.11 197.491 33.99C198.254 34.87 198.635 36.036 198.635 37.488C198.635 39.424 198.144 41.0373 197.161 42.328C196.193 43.604 194.968 44.242 193.487 44.242C192.27 44.242 191.258 43.7873 190.451 42.878C189.659 41.954 189.263 40.7953 189.263 39.402ZM196.171 38.632C196.171 36.5053 195.445 35.442 193.993 35.442C192.482 35.442 191.727 36.4393 191.727 38.434C191.727 39.4753 191.94 40.2893 192.365 40.876C192.79 41.4627 193.348 41.756 194.037 41.756C194.741 41.756 195.269 41.492 195.621 40.964C195.988 40.4213 196.171 39.644 196.171 38.632ZM209.94 41.25H210.226L210.93 38.236L212.074 32.802L214.758 33.132L213.152 38.588L211.81 43.736L208.202 44.066L206.992 38.72L206.882 38.368L205.408 43.736L201.91 44.066L200.634 38.72L199.116 33.374L201.998 32.824L202.9 37.664L203.692 41.25H203.978L205.87 34.98L205.408 33.374L208.246 32.824L209.17 37.664L209.94 41.25ZM219.134 41.954C219.897 41.954 220.278 41.6167 220.278 40.942C220.278 40.7073 220.11 40.4873 219.772 40.282C219.45 40.0767 219.046 39.8713 218.562 39.666C218.093 39.4607 217.616 39.2333 217.132 38.984C216.663 38.72 216.26 38.3607 215.922 37.906C215.6 37.4513 215.438 36.9307 215.438 36.344C215.438 35.3613 215.871 34.5033 216.736 33.77C217.602 33.0367 218.599 32.67 219.728 32.67C220.256 32.67 220.77 32.736 221.268 32.868C221.782 32.9853 222.273 33.176 222.742 33.44L221.268 36.124C221.166 36.036 221.034 35.926 220.872 35.794C220.711 35.662 220.403 35.4933 219.948 35.288C219.508 35.068 219.112 34.958 218.76 34.958C218.423 34.958 218.159 35.0387 217.968 35.2C217.792 35.3467 217.704 35.5593 217.704 35.838C217.704 36.102 217.954 36.3733 218.452 36.652C218.966 36.916 219.523 37.1653 220.124 37.4C220.726 37.62 221.276 37.994 221.774 38.522C222.288 39.0353 222.544 39.6513 222.544 40.37C222.544 41.3967 222.119 42.2987 221.268 43.076C220.432 43.8533 219.464 44.242 218.364 44.242C217.66 44.242 217 44.088 216.384 43.78C215.783 43.472 215.35 43.164 215.086 42.856L214.69 42.394L216.428 40.37C216.516 40.4873 216.641 40.634 216.802 40.81C216.964 40.986 217.279 41.2207 217.748 41.514C218.232 41.8073 218.694 41.954 219.134 41.954ZM228.022 41.756C228.448 41.756 228.895 41.646 229.364 41.426C229.834 41.206 230.2 40.986 230.464 40.766L230.86 40.436L231.872 41.668C231.726 41.9173 231.498 42.2033 231.19 42.526C230.882 42.8487 230.567 43.1273 230.244 43.362C229.936 43.582 229.518 43.7873 228.99 43.978C228.477 44.154 227.942 44.242 227.384 44.242C226.196 44.242 225.228 43.7947 224.48 42.9C223.732 41.9907 223.358 40.8247 223.358 39.402C223.358 37.6127 223.879 36.0433 224.92 34.694C225.962 33.3447 227.179 32.67 228.572 32.67C229.643 32.67 230.472 32.9707 231.058 33.572C231.66 34.1733 231.96 35.0167 231.96 36.102C231.96 36.7473 231.85 37.4807 231.63 38.302L231.19 38.764L225.69 39.27C225.94 40.9273 226.717 41.756 228.022 41.756ZM228.022 34.936C227.377 34.936 226.834 35.2 226.394 35.728C225.954 36.2413 225.698 36.9013 225.624 37.708L229.364 37.246C229.408 36.9087 229.43 36.63 229.43 36.41C229.43 35.4273 228.961 34.936 228.022 34.936Z"/>
</mask>
<path d="M120.665 44.242C119.624 44.242 118.121 44.1613 116.155 44L116.419 38.654L116.155 28.82H122.029C124.009 28.82 125.557 29.414 126.671 30.602C127.786 31.79 128.343 33.44 128.343 35.552C128.343 38.2213 127.654 40.3407 126.275 41.91C124.897 43.4647 123.027 44.242 120.665 44.242ZM121.237 31.196C120.269 31.196 119.587 31.2033 119.191 31.218L118.971 38.28L119.125 41.844C120.357 41.932 121.186 41.976 121.611 41.976C122.77 41.976 123.679 41.5067 124.339 40.568C125.014 39.6293 125.351 38.2653 125.351 36.476C125.351 34.6867 125.021 33.3593 124.361 32.494C123.716 31.6287 122.675 31.196 121.237 31.196ZM132.821 32.802L132.557 38.28L132.799 43.45L129.851 44L130.115 38.654L129.873 33.352L132.821 32.802ZM129.719 29.59C129.719 29.0913 129.909 28.6513 130.291 28.27C130.672 27.874 131.112 27.676 131.611 27.676C132.109 27.676 132.491 27.8153 132.755 28.094C133.019 28.358 133.151 28.7613 133.151 29.304C133.151 29.8467 132.96 30.316 132.579 30.712C132.212 31.0933 131.779 31.284 131.281 31.284C130.797 31.284 130.415 31.1227 130.137 30.8C129.858 30.4773 129.719 30.074 129.719 29.59ZM134.594 33.374L137.256 32.802C137.388 33.9313 137.476 35.002 137.52 36.014C138.854 33.946 140.108 32.912 141.282 32.912L141.04 36.344C140.189 36.344 139.514 36.4247 139.016 36.586C138.532 36.7327 138.033 37.0333 137.52 37.488V38.28L137.762 43.45L134.814 44L135.078 38.654C135.019 36.6887 134.858 34.9287 134.594 33.374ZM146.23 41.756C146.655 41.756 147.102 41.646 147.572 41.426C148.041 41.206 148.408 40.986 148.672 40.766L149.068 40.436L150.08 41.668C149.933 41.9173 149.706 42.2033 149.398 42.526C149.09 42.8487 148.774 43.1273 148.452 43.362C148.144 43.582 147.726 43.7873 147.198 43.978C146.684 44.154 146.149 44.242 145.592 44.242C144.404 44.242 143.436 43.7947 142.688 42.9C141.94 41.9907 141.566 40.8247 141.566 39.402C141.566 37.6127 142.086 36.0433 143.128 34.694C144.169 33.3447 145.386 32.67 146.78 32.67C147.85 32.67 148.679 32.9707 149.266 33.572C149.867 34.1733 150.168 35.0167 150.168 36.102C150.168 36.7473 150.058 37.4807 149.838 38.302L149.398 38.764L143.898 39.27C144.147 40.9273 144.924 41.756 146.23 41.756ZM146.23 34.936C145.584 34.936 145.042 35.2 144.602 35.728C144.162 36.2413 143.905 36.9013 143.832 37.708L147.572 37.246C147.616 36.9087 147.638 36.63 147.638 36.41C147.638 35.4273 147.168 34.936 146.23 34.936ZM155.464 35.53C154.819 35.53 154.32 35.7647 153.968 36.234C153.616 36.6887 153.44 37.3927 153.44 38.346C153.44 39.2993 153.616 40.0693 153.968 40.656C154.335 41.228 154.863 41.514 155.552 41.514C155.904 41.514 156.249 41.404 156.586 41.184C156.923 40.964 157.18 40.744 157.356 40.524L157.598 40.172L158.698 41.316C158.654 41.3893 158.595 41.492 158.522 41.624C158.463 41.756 158.302 41.9907 158.038 42.328C157.789 42.6653 157.517 42.966 157.224 43.23C156.945 43.4793 156.579 43.714 156.124 43.934C155.669 44.1393 155.193 44.242 154.694 44.242C153.594 44.242 152.699 43.7947 152.01 42.9C151.321 42.0053 150.976 40.8393 150.976 39.402C150.976 37.6127 151.497 36.0433 152.538 34.694C153.579 33.3447 154.797 32.67 156.19 32.67C156.615 32.67 157.041 32.736 157.466 32.868C157.891 32.9853 158.324 33.176 158.764 33.44L157.224 36.146C156.696 35.7353 156.109 35.53 155.464 35.53ZM160.595 33.352V30.954L163.565 30.382L163.279 33.352H165.941L165.699 35.156H163.191L163.081 39.754C163.081 40.4433 163.147 40.9053 163.279 41.14C163.411 41.36 163.653 41.47 164.005 41.47C164.357 41.47 164.826 41.3893 165.413 41.228L165.545 42.79C164.577 43.5967 163.726 44 162.993 44C162.259 44 161.658 43.736 161.189 43.208C160.719 42.6653 160.485 41.9613 160.485 41.096L160.617 38.632L160.595 35.156H159.077L159.319 33.352H160.595ZM175.394 28.82C176.802 28.82 177.916 29.1427 178.738 29.788C179.559 30.4187 179.97 31.2693 179.97 32.34C179.97 34.056 179.266 35.2513 177.858 35.926C179.764 36.586 180.718 37.8033 180.718 39.578C180.718 40.9127 180.146 42.0273 179.002 42.922C177.858 43.802 176.42 44.242 174.69 44.242C173.78 44.242 172.424 44.1613 170.62 44L170.884 38.654L170.62 28.82H175.394ZM175.108 37.466H173.326L173.304 38.28L173.458 41.866C174.308 41.9393 174.961 41.976 175.416 41.976C176.193 41.976 176.794 41.7853 177.22 41.404C177.66 41.008 177.88 40.436 177.88 39.688C177.88 38.94 177.66 38.3827 177.22 38.016C176.78 37.6493 176.076 37.466 175.108 37.466ZM174.602 31.042H173.524L173.392 35.332H174.822C175.57 35.332 176.142 35.134 176.538 34.738C176.934 34.3273 177.132 33.748 177.132 33C177.132 31.6947 176.288 31.042 174.602 31.042ZM182.247 33.374L184.909 32.802C185.041 33.9313 185.129 35.002 185.173 36.014C186.508 33.946 187.762 32.912 188.935 32.912L188.693 36.344C187.843 36.344 187.168 36.4247 186.669 36.586C186.185 36.7327 185.687 37.0333 185.173 37.488V38.28L185.415 43.45L182.467 44L182.731 38.654C182.673 36.6887 182.511 34.9287 182.247 33.374ZM189.263 39.402C189.263 37.5247 189.769 35.9333 190.781 34.628C191.793 33.3227 192.974 32.67 194.323 32.67C195.687 32.67 196.743 33.11 197.491 33.99C198.254 34.87 198.635 36.036 198.635 37.488C198.635 39.424 198.144 41.0373 197.161 42.328C196.193 43.604 194.968 44.242 193.487 44.242C192.27 44.242 191.258 43.7873 190.451 42.878C189.659 41.954 189.263 40.7953 189.263 39.402ZM196.171 38.632C196.171 36.5053 195.445 35.442 193.993 35.442C192.482 35.442 191.727 36.4393 191.727 38.434C191.727 39.4753 191.94 40.2893 192.365 40.876C192.79 41.4627 193.348 41.756 194.037 41.756C194.741 41.756 195.269 41.492 195.621 40.964C195.988 40.4213 196.171 39.644 196.171 38.632ZM209.94 41.25H210.226L210.93 38.236L212.074 32.802L214.758 33.132L213.152 38.588L211.81 43.736L208.202 44.066L206.992 38.72L206.882 38.368L205.408 43.736L201.91 44.066L200.634 38.72L199.116 33.374L201.998 32.824L202.9 37.664L203.692 41.25H203.978L205.87 34.98L205.408 33.374L208.246 32.824L209.17 37.664L209.94 41.25ZM219.134 41.954C219.897 41.954 220.278 41.6167 220.278 40.942C220.278 40.7073 220.11 40.4873 219.772 40.282C219.45 40.0767 219.046 39.8713 218.562 39.666C218.093 39.4607 217.616 39.2333 217.132 38.984C216.663 38.72 216.26 38.3607 215.922 37.906C215.6 37.4513 215.438 36.9307 215.438 36.344C215.438 35.3613 215.871 34.5033 216.736 33.77C217.602 33.0367 218.599 32.67 219.728 32.67C220.256 32.67 220.77 32.736 221.268 32.868C221.782 32.9853 222.273 33.176 222.742 33.44L221.268 36.124C221.166 36.036 221.034 35.926 220.872 35.794C220.711 35.662 220.403 35.4933 219.948 35.288C219.508 35.068 219.112 34.958 218.76 34.958C218.423 34.958 218.159 35.0387 217.968 35.2C217.792 35.3467 217.704 35.5593 217.704 35.838C217.704 36.102 217.954 36.3733 218.452 36.652C218.966 36.916 219.523 37.1653 220.124 37.4C220.726 37.62 221.276 37.994 221.774 38.522C222.288 39.0353 222.544 39.6513 222.544 40.37C222.544 41.3967 222.119 42.2987 221.268 43.076C220.432 43.8533 219.464 44.242 218.364 44.242C217.66 44.242 217 44.088 216.384 43.78C215.783 43.472 215.35 43.164 215.086 42.856L214.69 42.394L216.428 40.37C216.516 40.4873 216.641 40.634 216.802 40.81C216.964 40.986 217.279 41.2207 217.748 41.514C218.232 41.8073 218.694 41.954 219.134 41.954ZM228.022 41.756C228.448 41.756 228.895 41.646 229.364 41.426C229.834 41.206 230.2 40.986 230.464 40.766L230.86 40.436L231.872 41.668C231.726 41.9173 231.498 42.2033 231.19 42.526C230.882 42.8487 230.567 43.1273 230.244 43.362C229.936 43.582 229.518 43.7873 228.99 43.978C228.477 44.154 227.942 44.242 227.384 44.242C226.196 44.242 225.228 43.7947 224.48 42.9C223.732 41.9907 223.358 40.8247 223.358 39.402C223.358 37.6127 223.879 36.0433 224.92 34.694C225.962 33.3447 227.179 32.67 228.572 32.67C229.643 32.67 230.472 32.9707 231.058 33.572C231.66 34.1733 231.96 35.0167 231.96 36.102C231.96 36.7473 231.85 37.4807 231.63 38.302L231.19 38.764L225.69 39.27C225.94 40.9273 226.717 41.756 228.022 41.756ZM228.022 34.936C227.377 34.936 226.834 35.2 226.394 35.728C225.954 36.2413 225.698 36.9013 225.624 37.708L229.364 37.246C229.408 36.9087 229.43 36.63 229.43 36.41C229.43 35.4273 228.961 34.936 228.022 34.936Z" fill="#DFDADA" fill-opacity="0.6"/>
<path d="M116.155 44L115.156 43.9507L115.109 44.9175L116.073 44.9966L116.155 44ZM116.419 38.654L117.418 38.7033L117.42 38.6653L117.419 38.6272L116.419 38.654ZM116.155 28.82V27.82H115.128L115.156 28.8468L116.155 28.82ZM126.671 30.602L127.401 29.9178L127.401 29.9178L126.671 30.602ZM126.275 41.91L127.023 42.5735L127.027 42.57L126.275 41.91ZM119.191 31.218L119.154 30.2187L118.221 30.2533L118.192 31.1869L119.191 31.218ZM118.971 38.28L117.972 38.2489L117.971 38.286L117.972 38.3232L118.971 38.28ZM119.125 41.844L118.126 41.8872L118.165 42.7779L119.054 42.8415L119.125 41.844ZM124.339 40.568L123.527 39.9843L123.521 39.9928L124.339 40.568ZM124.361 32.494L123.56 33.0919L123.566 33.1004L124.361 32.494ZM120.665 43.242C119.666 43.242 118.195 43.164 116.237 43.0034L116.073 44.9966C118.047 45.1586 119.582 45.242 120.665 45.242V43.242ZM117.154 44.0493L117.418 38.7033L115.42 38.6047L115.156 43.9507L117.154 44.0493ZM117.419 38.6272L117.155 28.7932L115.156 28.8468L115.42 38.6808L117.419 38.6272ZM116.155 29.82H122.029V27.82H116.155V29.82ZM122.029 29.82C123.797 29.82 125.056 30.3421 125.942 31.2862L127.401 29.9178C126.057 28.4859 124.221 27.82 122.029 27.82V29.82ZM125.942 31.2862C126.836 32.239 127.343 33.6163 127.343 35.552H129.343C129.343 33.2637 128.736 31.341 127.401 29.9178L125.942 31.2862ZM127.343 35.552C127.343 38.0479 126.702 39.9093 125.524 41.25L127.027 42.57C128.606 40.772 129.343 38.3948 129.343 35.552H127.343ZM125.527 41.2465C124.365 42.5568 122.784 43.242 120.665 43.242V45.242C123.269 45.242 125.428 44.3726 127.023 42.5735L125.527 41.2465ZM121.237 30.196C120.269 30.196 119.571 30.2033 119.154 30.2187L119.228 32.2173C119.604 32.2034 120.269 32.196 121.237 32.196V30.196ZM118.192 31.1869L117.972 38.2489L119.971 38.3111L120.191 31.2491L118.192 31.1869ZM117.972 38.3232L118.126 41.8872L120.124 41.8008L119.97 38.2368L117.972 38.3232ZM119.054 42.8415C120.281 42.9291 121.145 42.976 121.611 42.976V40.976C121.227 40.976 120.434 40.9349 119.197 40.8465L119.054 42.8415ZM121.611 42.976C123.092 42.976 124.308 42.3513 125.157 41.1432L123.521 39.9928C123.051 40.6621 122.448 40.976 121.611 40.976V42.976ZM125.151 41.1516C125.999 39.9728 126.351 38.3676 126.351 36.476H124.351C124.351 38.1631 124.029 39.2859 123.527 39.9844L125.151 41.1516ZM126.351 36.476C126.351 34.597 126.011 33.0077 125.156 31.8876L123.566 33.1004C124.032 33.7109 124.351 34.7763 124.351 36.476H126.351ZM125.163 31.8962C124.27 30.6987 122.877 30.196 121.237 30.196V32.196C122.473 32.196 123.162 32.5586 123.56 33.0918L125.163 31.8962ZM132.821 32.802L133.819 32.8501L133.88 31.587L132.637 31.819L132.821 32.802ZM132.557 38.28L131.558 38.2319L131.556 38.2793L131.558 38.3268L132.557 38.28ZM132.799 43.45L132.982 44.433L133.838 44.2733L133.798 43.4032L132.799 43.45ZM129.851 44L128.852 43.9507L128.789 45.2152L130.034 44.983L129.851 44ZM130.115 38.654L131.113 38.7033L131.116 38.6559L131.114 38.6084L130.115 38.654ZM129.873 33.352L129.689 32.369L128.834 32.5285L128.874 33.3976L129.873 33.352ZM130.291 28.27L130.998 28.9771L131.004 28.9704L131.011 28.9636L130.291 28.27ZM132.755 28.094L132.029 28.7817L132.038 28.7916L132.048 28.8011L132.755 28.094ZM132.579 30.712L131.858 30.0184L131.858 30.0189L132.579 30.712ZM130.137 30.8L129.38 31.4536L130.137 30.8ZM131.822 32.7539L131.558 38.2319L133.555 38.3281L133.819 32.8501L131.822 32.7539ZM131.558 38.3268L131.8 43.4968L133.798 43.4032L133.556 38.2332L131.558 38.3268ZM132.615 42.467L129.667 43.017L130.034 44.983L132.982 44.433L132.615 42.467ZM130.849 44.0493L131.113 38.7033L129.116 38.6047L128.852 43.9507L130.849 44.0493ZM131.114 38.6084L130.872 33.3064L128.874 33.3976L129.116 38.6996L131.114 38.6084ZM130.056 34.335L133.004 33.785L132.637 31.819L129.689 32.369L130.056 34.335ZM130.719 29.59C130.719 29.3795 130.787 29.1878 130.998 28.9771L129.584 27.5629C129.032 28.1149 128.719 28.8032 128.719 29.59H130.719ZM131.011 28.9636C131.225 28.7412 131.413 28.676 131.611 28.676V26.676C130.811 26.676 130.119 27.0068 129.57 27.5764L131.011 28.9636ZM131.611 28.676C131.921 28.676 132.006 28.7575 132.029 28.7817L133.481 27.4063C132.976 26.8732 132.298 26.676 131.611 26.676V28.676ZM132.048 28.8011C132.053 28.8069 132.151 28.9062 132.151 29.304H134.151C134.151 28.6165 133.984 27.9091 133.462 27.3869L132.048 28.8011ZM132.151 29.304C132.151 29.5842 132.063 29.806 131.858 30.0184L133.299 31.4056C133.857 30.826 134.151 30.1091 134.151 29.304H132.151ZM131.858 30.0189C131.667 30.2175 131.489 30.284 131.281 30.284V32.284C132.069 32.284 132.757 31.9692 133.299 31.4051L131.858 30.0189ZM131.281 30.284C131.043 30.284 130.955 30.218 130.893 30.1464L129.38 31.4536C129.875 32.0274 130.55 32.284 131.281 32.284V30.284ZM130.893 30.1464C130.793 30.0299 130.719 29.8686 130.719 29.59H128.719C128.719 30.2794 128.923 30.9248 129.38 31.4536L130.893 30.1464ZM134.594 33.374L134.384 32.3963L133.448 32.5975L133.608 33.5414L134.594 33.374ZM137.256 32.802L138.249 32.6859L138.121 31.5932L137.046 31.8243L137.256 32.802ZM137.52 36.014L136.521 36.0574L136.657 39.1948L138.36 36.5563L137.52 36.014ZM141.282 32.912L142.279 32.9823L142.355 31.912H141.282V32.912ZM141.04 36.344V37.344H141.972L142.037 36.4143L141.04 36.344ZM139.016 36.586L139.306 37.543L139.315 37.5403L139.324 37.5374L139.016 36.586ZM137.52 37.488L136.857 36.7394L136.52 37.0379V37.488H137.52ZM137.52 38.28H136.52V38.3034L136.521 38.3268L137.52 38.28ZM137.762 43.45L137.945 44.433L138.801 44.2733L138.761 43.4032L137.762 43.45ZM134.814 44L133.815 43.9507L133.753 45.2152L134.997 44.983L134.814 44ZM135.078 38.654L136.077 38.7033L136.078 38.6638L136.077 38.6242L135.078 38.654ZM134.804 34.3517L137.466 33.7797L137.046 31.8243L134.384 32.3963L134.804 34.3517ZM136.262 32.9181C136.392 34.0262 136.478 35.0724 136.521 36.0574L138.519 35.9706C138.474 34.9316 138.383 33.8365 138.249 32.6859L136.262 32.9181ZM138.36 36.5563C138.997 35.5691 139.579 34.8861 140.097 34.459C140.614 34.0333 141.003 33.912 141.282 33.912V31.912C140.388 31.912 139.563 32.3077 138.825 32.916C138.089 33.5229 137.377 34.3909 136.68 35.4717L138.36 36.5563ZM140.284 32.8417L140.042 36.2737L142.037 36.4143L142.279 32.9823L140.284 32.8417ZM141.04 35.344C140.141 35.344 139.348 35.4273 138.708 35.6346L139.324 37.5374C139.68 37.422 140.237 37.344 141.04 37.344V35.344ZM138.726 35.629C138.064 35.8295 137.442 36.2213 136.857 36.7394L138.183 38.2366C138.625 37.8453 139 37.6358 139.306 37.543L138.726 35.629ZM136.52 37.488V38.28H138.52V37.488H136.52ZM136.521 38.3268L136.763 43.4968L138.761 43.4032L138.519 38.2332L136.521 38.3268ZM137.578 42.467L134.63 43.017L134.997 44.983L137.945 44.433L137.578 42.467ZM135.813 44.0493L136.077 38.7033L134.079 38.6047L133.815 43.9507L135.813 44.0493ZM136.077 38.6242C136.018 36.6234 135.853 34.8162 135.58 33.2066L133.608 33.5414C133.863 35.0411 134.021 36.7539 134.078 38.6838L136.077 38.6242ZM147.572 41.426L147.147 40.5205L147.572 41.426ZM148.672 40.766L148.031 39.9978L148.672 40.766ZM149.068 40.436L149.84 39.8013L149.201 39.0231L148.427 39.6678L149.068 40.436ZM150.08 41.668L150.941 42.175L151.296 41.573L150.852 41.0333L150.08 41.668ZM149.398 42.526L148.674 41.8355L149.398 42.526ZM148.452 43.362L149.033 44.1758L149.04 44.1707L148.452 43.362ZM147.198 43.978L147.522 44.9239L147.53 44.9213L147.537 44.9186L147.198 43.978ZM142.688 42.9L141.915 43.5353L141.92 43.5414L142.688 42.9ZM143.128 34.694L143.919 35.305L143.128 34.694ZM149.266 33.572L148.55 34.2704L148.558 34.2791L149.266 33.572ZM149.838 38.302L150.562 38.9917L150.738 38.807L150.803 38.5607L149.838 38.302ZM149.398 38.764L149.489 39.7598L149.863 39.7254L150.122 39.4537L149.398 38.764ZM143.898 39.27L143.806 38.2742L142.751 38.3713L142.909 39.4188L143.898 39.27ZM144.602 35.728L145.361 36.3789L145.37 36.3682L144.602 35.728ZM143.832 37.708L142.836 37.6175L142.723 38.8525L143.954 38.7005L143.832 37.708ZM147.572 37.246L147.694 38.2385L148.463 38.1435L148.563 37.3753L147.572 37.246ZM146.23 42.756C146.83 42.756 147.422 42.6004 147.996 42.3315L147.147 40.5205C146.782 40.6916 146.48 40.756 146.23 40.756V42.756ZM147.996 42.3315C148.508 42.0915 148.958 41.8292 149.312 41.5342L148.031 39.9978C147.857 40.1428 147.574 40.3205 147.147 40.5205L147.996 42.3315ZM149.312 41.5342L149.708 41.2042L148.427 39.6678L148.031 39.9978L149.312 41.5342ZM148.295 41.0707L149.307 42.3027L150.852 41.0333L149.84 39.8013L148.295 41.0707ZM149.218 41.161C149.125 41.3185 148.954 41.542 148.674 41.8355L150.121 43.2165C150.457 42.8647 150.741 42.5161 150.941 42.175L149.218 41.161ZM148.674 41.8355C148.403 42.1198 148.132 42.3577 147.863 42.5533L149.04 44.1707C149.416 43.8969 149.776 43.5775 150.121 43.2165L148.674 41.8355ZM147.87 42.5483C147.663 42.6962 147.337 42.8644 146.858 43.0374L147.537 44.9186C148.114 44.7103 148.624 44.4678 149.033 44.1757L147.87 42.5483ZM146.873 43.0321C146.467 43.1713 146.042 43.242 145.592 43.242V45.242C146.256 45.242 146.901 45.1367 147.522 44.9239L146.873 43.0321ZM145.592 43.242C144.693 43.242 144.009 42.9211 143.455 42.2586L141.92 43.5414C142.862 44.6682 144.114 45.242 145.592 45.242V43.242ZM143.46 42.2647C142.888 41.5696 142.566 40.643 142.566 39.402H140.566C140.566 41.0063 140.991 42.4117 141.915 43.5353L143.46 42.2647ZM142.566 39.402C142.566 37.8219 143.02 36.4701 143.919 35.305L142.336 34.083C141.152 35.6165 140.566 37.4034 140.566 39.402H142.566ZM143.919 35.305C144.818 34.1401 145.766 33.67 146.78 33.67V31.67C145.007 31.67 143.52 32.5492 142.336 34.083L143.919 35.305ZM146.78 33.67C147.659 33.67 148.2 33.9113 148.55 34.2703L149.981 32.8737C149.158 32.03 148.042 31.67 146.78 31.67V33.67ZM148.558 34.2791C148.924 34.6448 149.168 35.205 149.168 36.102H151.168C151.168 34.8283 150.81 33.7019 149.973 32.8649L148.558 34.2791ZM149.168 36.102C149.168 36.6374 149.076 37.2813 148.872 38.0433L150.803 38.5607C151.039 37.68 151.168 36.8573 151.168 36.102H149.168ZM149.113 37.6123L148.673 38.0743L150.122 39.4537L150.562 38.9917L149.113 37.6123ZM149.306 37.7682L143.806 38.2742L143.989 40.2658L149.489 39.7598L149.306 37.7682ZM142.909 39.4188C143.05 40.3577 143.359 41.2013 143.938 41.8187C144.545 42.4652 145.346 42.756 146.23 42.756V40.756C145.808 40.756 145.568 40.6325 145.397 40.4503C145.199 40.239 144.994 39.8396 144.886 39.1212L142.909 39.4188ZM146.23 33.936C145.266 33.936 144.449 34.3488 143.833 35.0878L145.37 36.3682C145.634 36.0512 145.902 35.936 146.23 35.936V33.936ZM143.842 35.0772C143.242 35.7774 142.924 36.6459 142.836 37.6175L144.827 37.7985C144.886 37.1568 145.081 36.7053 145.361 36.3788L143.842 35.0772ZM143.954 38.7005L147.694 38.2385L147.449 36.2535L143.709 36.7155L143.954 38.7005ZM148.563 37.3753C148.61 37.0156 148.638 36.6899 148.638 36.41H146.638C146.638 36.5701 146.621 36.8018 146.58 37.1167L148.563 37.3753ZM148.638 36.41C148.638 35.7757 148.487 35.1143 148.009 34.6138C147.522 34.1046 146.865 33.936 146.23 33.936V35.936C146.38 35.936 146.469 35.956 146.516 35.9723C146.538 35.9801 146.551 35.9869 146.556 35.9901C146.56 35.9931 146.562 35.9947 146.562 35.9952C146.563 35.9958 146.566 35.9994 146.572 36.009C146.578 36.019 146.587 36.0377 146.597 36.0685C146.617 36.1323 146.638 36.2408 146.638 36.41H148.638ZM153.968 36.234L154.759 36.8462L154.763 36.8401L154.768 36.834L153.968 36.234ZM153.968 40.656L153.11 41.1705L153.118 41.1832L153.126 41.1957L153.968 40.656ZM156.586 41.184L156.04 40.3464L156.586 41.184ZM157.356 40.524L158.137 41.1487L158.159 41.1204L158.18 41.0905L157.356 40.524ZM157.598 40.172L158.319 39.4789L157.469 38.5948L156.774 39.6055L157.598 40.172ZM158.698 41.316L159.555 41.8305L159.949 41.1744L159.419 40.6229L158.698 41.316ZM158.522 41.624L157.648 41.1384L157.626 41.1772L157.608 41.2179L158.522 41.624ZM158.038 42.328L157.25 41.7117L157.242 41.7225L157.234 41.7336L158.038 42.328ZM157.224 43.23L157.891 43.9752L157.893 43.9733L157.224 43.23ZM156.124 43.934L156.535 44.8454L156.548 44.8399L156.559 44.8342L156.124 43.934ZM152.01 42.9L152.802 42.2897L152.01 42.9ZM152.538 34.694L153.33 35.305L152.538 34.694ZM157.466 32.868L157.169 33.8231L157.185 33.8278L157.2 33.832L157.466 32.868ZM158.764 33.44L159.633 33.9346L160.116 33.0853L159.278 32.5825L158.764 33.44ZM157.224 36.146L156.61 36.9354L157.522 37.6445L158.093 36.6406L157.224 36.146ZM155.464 34.53C154.54 34.53 153.73 34.8851 153.168 35.634L154.768 36.834C154.91 36.6442 155.097 36.53 155.464 36.53V34.53ZM153.177 35.6218C152.626 36.3341 152.44 37.3046 152.44 38.346H154.44C154.44 37.4808 154.606 37.0433 154.759 36.8462L153.177 35.6218ZM152.44 38.346C152.44 39.4125 152.635 40.3789 153.11 41.1705L154.825 40.1415C154.596 39.7598 154.44 39.1862 154.44 38.346H152.44ZM153.126 41.1957C153.68 42.0596 154.528 42.514 155.552 42.514V40.514C155.197 40.514 154.989 40.3964 154.81 40.1163L153.126 41.1957ZM155.552 42.514C156.125 42.514 156.656 42.3319 157.132 42.0216L156.04 40.3464C155.841 40.4761 155.683 40.514 155.552 40.514V42.514ZM157.132 42.0216C157.524 41.7663 157.873 41.4789 158.137 41.1487L156.575 39.8993C156.487 40.0091 156.323 40.1617 156.04 40.3464L157.132 42.0216ZM158.18 41.0905L158.422 40.7385L156.774 39.6055L156.532 39.9575L158.18 41.0905ZM156.877 40.8651L157.977 42.0091L159.419 40.6229L158.319 39.4789L156.877 40.8651ZM157.84 40.8015C157.788 40.8889 157.723 41.0028 157.648 41.1384L159.396 42.1096C159.467 41.9812 159.52 41.8898 159.555 41.8305L157.84 40.8015ZM157.608 41.2179C157.617 41.1969 157.605 41.227 157.533 41.3325C157.468 41.4267 157.375 41.552 157.25 41.7117L158.825 42.9443C159.077 42.623 159.319 42.2936 159.436 42.0301L157.608 41.2179ZM157.234 41.7336C157.022 42.0203 156.795 42.2704 156.555 42.4867L157.893 43.9733C158.239 43.6616 158.555 43.3104 158.842 42.9224L157.234 41.7336ZM156.557 42.4848C156.367 42.6545 156.086 42.8412 155.688 43.0338L156.559 44.8342C157.071 44.5868 157.523 44.3042 157.891 43.9752L156.557 42.4848ZM155.712 43.0226C155.387 43.1696 155.051 43.242 154.694 43.242V45.242C155.335 45.242 155.952 45.1091 156.535 44.8454L155.712 43.0226ZM154.694 43.242C153.914 43.242 153.308 42.9463 152.802 42.2897L151.218 43.5103C152.09 44.643 153.274 45.242 154.694 45.242V43.242ZM152.802 42.2897C152.28 41.6127 151.976 40.6795 151.976 39.402H149.976C149.976 40.9992 150.361 42.3979 151.218 43.5103L152.802 42.2897ZM151.976 39.402C151.976 37.8219 152.43 36.4701 153.33 35.305L151.746 34.083C150.563 35.6165 149.976 37.4034 149.976 39.402H151.976ZM153.33 35.305C154.229 34.1401 155.176 33.67 156.19 33.67V31.67C154.417 31.67 152.93 32.5492 151.746 34.083L153.33 35.305ZM156.19 33.67C156.51 33.67 156.836 33.7194 157.169 33.8231L157.762 31.9129C157.246 31.7526 156.72 31.67 156.19 31.67V33.67ZM157.2 33.832C157.525 33.9217 157.875 34.0727 158.249 34.2975L159.278 32.5825C158.773 32.2793 158.257 32.049 157.732 31.904L157.2 33.832ZM157.895 32.9454L156.355 35.6514L158.093 36.6406L159.633 33.9346L157.895 32.9454ZM157.838 35.3566C157.141 34.8148 156.34 34.53 155.464 34.53V36.53C155.878 36.53 156.251 36.6558 156.61 36.9354L157.838 35.3566ZM160.595 33.352V34.352H161.595V33.352H160.595ZM160.595 30.954L160.406 29.972L159.595 30.1282V30.954H160.595ZM163.565 30.382L164.56 30.4779L164.688 29.1472L163.376 29.4L163.565 30.382ZM163.279 33.352L162.283 33.2561L162.178 34.352H163.279V33.352ZM165.941 33.352L166.932 33.485L167.084 32.352H165.941V33.352ZM165.699 35.156V36.156H166.574L166.69 35.289L165.699 35.156ZM163.191 35.156V34.156H162.214L162.191 35.1321L163.191 35.156ZM163.081 39.754L162.081 39.7301L162.081 39.742V39.754H163.081ZM163.279 41.14L162.407 41.6303L162.414 41.6425L162.421 41.6545L163.279 41.14ZM165.413 41.228L166.409 41.1438L166.308 39.9447L165.148 40.2638L165.413 41.228ZM165.545 42.79L166.185 43.5582L166.585 43.2248L166.541 42.7058L165.545 42.79ZM161.189 43.208L160.432 43.8622L160.441 43.8724L161.189 43.208ZM160.485 41.096L159.486 41.0425L159.485 41.0692V41.096H160.485ZM160.617 38.632L161.615 38.6855L161.617 38.6556L161.617 38.6257L160.617 38.632ZM160.595 35.156L161.595 35.1497L161.588 34.156H160.595V35.156ZM159.077 35.156L158.086 35.023L157.934 36.156H159.077V35.156ZM159.319 33.352V32.352H158.444L158.328 33.219L159.319 33.352ZM161.595 33.352V30.954H159.595V33.352H161.595ZM160.784 31.936L163.754 31.364L163.376 29.4L160.406 29.972L160.784 31.936ZM162.569 30.2861L162.283 33.2561L164.274 33.4479L164.56 30.4779L162.569 30.2861ZM163.279 34.352H165.941V32.352H163.279V34.352ZM164.95 33.219L164.708 35.023L166.69 35.289L166.932 33.485L164.95 33.219ZM165.699 34.156H163.191V36.156H165.699V34.156ZM162.191 35.1321L162.081 39.7301L164.08 39.7779L164.19 35.1799L162.191 35.1321ZM162.081 39.754C162.081 40.1259 162.098 40.4647 162.14 40.7589C162.18 41.0361 162.252 41.3536 162.407 41.6303L164.15 40.6497C164.174 40.6918 164.147 40.6609 164.12 40.4761C164.096 40.3083 164.081 40.0714 164.081 39.754H162.081ZM162.421 41.6545C162.798 42.2828 163.448 42.47 164.005 42.47V40.47C163.927 40.47 163.929 40.4572 163.973 40.4771C163.997 40.4879 164.028 40.5061 164.06 40.5345C164.092 40.5632 164.118 40.595 164.136 40.6255L162.421 41.6545ZM164.005 42.47C164.488 42.47 165.058 42.3627 165.678 42.1922L165.148 40.2638C164.594 40.4159 164.225 40.47 164.005 40.47V42.47ZM164.416 41.3122L164.548 42.8742L166.541 42.7058L166.409 41.1438L164.416 41.3122ZM164.905 42.0218C163.999 42.7765 163.375 43 162.993 43V45C164.077 45 165.155 44.4168 166.185 43.5582L164.905 42.0218ZM162.993 43C162.533 43 162.208 42.8491 161.936 42.5436L160.441 43.8724C161.108 44.6229 161.986 45 162.993 45V43ZM161.945 42.5538C161.664 42.2286 161.485 41.7729 161.485 41.096H159.485C159.485 42.1498 159.775 43.1021 160.432 43.8622L161.945 42.5538ZM161.483 41.1495L161.615 38.6855L159.618 38.5785L159.486 41.0425L161.483 41.1495ZM161.617 38.6257L161.595 35.1497L159.595 35.1623L159.617 38.6383L161.617 38.6257ZM160.595 34.156H159.077V36.156H160.595V34.156ZM160.068 35.289L160.31 33.485L158.328 33.219L158.086 35.023L160.068 35.289ZM159.319 34.352H160.595V32.352H159.319V34.352ZM178.738 29.788L178.12 30.5744L178.129 30.5811L178.738 29.788ZM177.858 35.926L177.425 35.0242L175.232 36.0753L177.53 36.871L177.858 35.926ZM179.002 42.922L179.611 43.7146L179.618 43.7097L179.002 42.922ZM170.62 44L169.621 43.9507L169.573 44.9104L170.531 44.996L170.62 44ZM170.884 38.654L171.882 38.7033L171.884 38.6653L171.883 38.6272L170.884 38.654ZM170.62 28.82V27.82H169.592L169.62 28.8468L170.62 28.82ZM173.326 37.466V36.466H172.352L172.326 37.439L173.326 37.466ZM173.304 38.28L172.304 38.253L172.303 38.288L172.304 38.3229L173.304 38.28ZM173.458 41.866L172.458 41.9089L172.496 42.7868L173.372 42.8623L173.458 41.866ZM177.22 41.404L177.887 42.1486L177.889 42.1473L177.22 41.404ZM177.22 38.016L177.86 37.2478L177.22 38.016ZM173.524 31.042V30.042H172.554L172.524 31.0112L173.524 31.042ZM173.392 35.332L172.392 35.3012L172.36 36.332H173.392V35.332ZM176.538 34.738L177.245 35.4451L177.251 35.4387L177.257 35.4321L176.538 34.738ZM175.394 29.82C176.655 29.82 177.527 30.1087 178.12 30.5743L179.355 29.0017C178.305 28.1766 176.948 27.82 175.394 27.82V29.82ZM178.129 30.5811C178.694 31.0152 178.97 31.5678 178.97 32.34H180.97C180.97 30.9709 180.424 29.8222 179.347 28.9948L178.129 30.5811ZM178.97 32.34C178.97 33.0615 178.822 33.6047 178.58 34.016C178.341 34.4215 177.974 34.7615 177.425 35.0242L178.29 36.8278C179.15 36.4158 179.838 35.8208 180.303 35.031C180.765 34.247 180.97 33.3345 180.97 32.34H178.97ZM177.53 36.871C178.357 37.1569 178.888 37.5332 179.215 37.9506C179.534 38.3578 179.718 38.8796 179.718 39.578H181.718C181.718 38.5018 181.424 37.5275 180.79 36.7174C180.163 35.9175 179.265 35.3551 178.185 34.981L177.53 36.871ZM179.718 39.578C179.718 40.5751 179.312 41.41 178.386 42.1343L179.618 43.7097C180.979 42.6447 181.718 41.2502 181.718 39.578H179.718ZM178.392 42.1294C177.455 42.8497 176.245 43.242 174.69 43.242V45.242C176.595 45.242 178.26 44.7543 179.611 43.7146L178.392 42.1294ZM174.69 43.242C173.826 43.242 172.506 43.1647 170.709 43.004L170.531 44.996C172.341 45.158 173.734 45.242 174.69 45.242V43.242ZM171.618 44.0493L171.882 38.7033L169.885 38.6047L169.621 43.9507L171.618 44.0493ZM171.883 38.6272L171.619 28.7932L169.62 28.8468L169.884 38.6808L171.883 38.6272ZM170.62 29.82H175.394V27.82H170.62V29.82ZM175.108 36.466H173.326V38.466H175.108V36.466ZM172.326 37.439L172.304 38.253L174.303 38.307L174.325 37.493L172.326 37.439ZM172.304 38.3229L172.458 41.9089L174.457 41.8231L174.303 38.2371L172.304 38.3229ZM173.372 42.8623C174.231 42.9364 174.917 42.976 175.416 42.976V40.976C175.004 40.976 174.386 40.9423 173.543 40.8697L173.372 42.8623ZM175.416 42.976C176.35 42.976 177.221 42.7458 177.887 42.1486L176.552 40.6594C176.367 40.8249 176.036 40.976 175.416 40.976V42.976ZM177.889 42.1473C178.592 41.514 178.88 40.6395 178.88 39.688H176.88C176.88 40.2325 176.727 40.502 176.551 40.6607L177.889 42.1473ZM178.88 39.688C178.88 38.7406 178.593 37.859 177.86 37.2478L176.579 38.7842C176.726 38.9063 176.88 39.1394 176.88 39.688H178.88ZM177.86 37.2478C177.152 36.6581 176.162 36.466 175.108 36.466V38.466C175.99 38.466 176.407 38.6405 176.579 38.7842L177.86 37.2478ZM174.602 30.042H173.524V32.042H174.602V30.042ZM172.524 31.0112L172.392 35.3012L174.391 35.3628L174.523 31.0728L172.524 31.0112ZM173.392 36.332H174.822V34.332H173.392V36.332ZM174.822 36.332C175.743 36.332 176.605 36.0849 177.245 35.4451L175.83 34.0309C175.678 34.1831 175.396 34.332 174.822 34.332V36.332ZM177.257 35.4321C177.884 34.7827 178.132 33.9237 178.132 33H176.132C176.132 33.5723 175.983 33.872 175.818 34.0439L177.257 35.4321ZM178.132 33C178.132 32.1149 177.833 31.299 177.111 30.7407C176.438 30.22 175.546 30.042 174.602 30.042V32.042C175.344 32.042 175.717 32.1904 175.887 32.3223C176.009 32.4167 176.132 32.5798 176.132 33H178.132ZM182.247 33.374L182.037 32.3963L181.101 32.5975L181.261 33.5414L182.247 33.374ZM184.909 32.802L185.903 32.6859L185.775 31.5932L184.699 31.8243L184.909 32.802ZM185.173 36.014L184.174 36.0574L184.311 39.1948L186.014 36.5563L185.173 36.014ZM188.935 32.912L189.933 32.9823L190.008 31.912H188.935V32.912ZM188.693 36.344V37.344H189.625L189.691 36.4143L188.693 36.344ZM186.669 36.586L186.959 37.543L186.968 37.5403L186.977 37.5374L186.669 36.586ZM185.173 37.488L184.51 36.7394L184.173 37.0379V37.488H185.173ZM185.173 38.28H184.173V38.3034L184.174 38.3268L185.173 38.28ZM185.415 43.45L185.599 44.433L186.455 44.2733L186.414 43.4032L185.415 43.45ZM182.467 44L181.469 43.9507L181.406 45.2152L182.651 44.983L182.467 44ZM182.731 38.654L183.73 38.7033L183.732 38.6638L183.731 38.6242L182.731 38.654ZM182.457 34.3517L185.119 33.7797L184.699 31.8243L182.037 32.3963L182.457 34.3517ZM183.916 32.9181C184.046 34.0262 184.131 35.0724 184.174 36.0574L186.172 35.9706C186.127 34.9316 186.037 33.8365 185.903 32.6859L183.916 32.9181ZM186.014 36.5563C186.651 35.5691 187.233 34.8861 187.751 34.459C188.267 34.0333 188.656 33.912 188.935 33.912V31.912C188.041 31.912 187.216 32.3077 186.479 32.916C185.743 33.5229 185.031 34.3909 184.333 35.4717L186.014 36.5563ZM187.938 32.8417L187.696 36.2737L189.691 36.4143L189.933 32.9823L187.938 32.8417ZM188.693 35.344C187.795 35.344 187.002 35.4273 186.361 35.6346L186.977 37.5374C187.334 37.422 187.891 37.344 188.693 37.344V35.344ZM186.379 35.629C185.717 35.8295 185.095 36.2213 184.51 36.7394L185.836 38.2366C186.278 37.8453 186.653 37.6358 186.959 37.543L186.379 35.629ZM184.173 37.488V38.28H186.173V37.488H184.173ZM184.174 38.3268L184.416 43.4968L186.414 43.4032L186.172 38.2332L184.174 38.3268ZM185.232 42.467L182.284 43.017L182.651 44.983L185.599 44.433L185.232 42.467ZM183.466 44.0493L183.73 38.7033L181.733 38.6047L181.469 43.9507L183.466 44.0493ZM183.731 38.6242C183.671 36.6234 183.507 34.8162 183.233 33.2066L181.261 33.5414C181.516 35.0411 181.674 36.7539 181.732 38.6838L183.731 38.6242ZM190.781 34.628L189.991 34.0153L190.781 34.628ZM197.491 33.99L196.729 34.6377L196.735 34.6449L197.491 33.99ZM197.161 42.328L196.365 41.7222L196.364 41.7236L197.161 42.328ZM190.451 42.878L189.692 43.5288L189.697 43.5352L189.703 43.5416L190.451 42.878ZM192.365 40.876L193.175 40.289L192.365 40.876ZM195.621 40.964L194.792 40.4041L194.789 40.4093L195.621 40.964ZM190.263 39.402C190.263 37.7147 190.714 36.3471 191.571 35.2407L189.991 34.0153C188.825 35.5195 188.263 37.3346 188.263 39.402H190.263ZM191.571 35.2407C192.441 34.1189 193.352 33.67 194.323 33.67V31.67C192.595 31.67 191.145 32.5264 189.991 34.0153L191.571 35.2407ZM194.323 33.67C195.452 33.67 196.206 34.0223 196.729 34.6376L198.253 33.3424C197.28 32.1977 195.922 31.67 194.323 31.67V33.67ZM196.735 34.6449C197.304 35.3015 197.635 36.2151 197.635 37.488H199.635C199.635 35.8569 199.203 34.4385 198.247 33.3351L196.735 34.6449ZM197.635 37.488C197.635 39.2488 197.191 40.6375 196.365 41.7222L197.957 42.9338C199.096 41.4372 199.635 39.5991 199.635 37.488H197.635ZM196.364 41.7236C195.568 42.7738 194.627 43.242 193.487 43.242V45.242C195.31 45.242 196.818 44.4342 197.958 42.9324L196.364 41.7236ZM193.487 43.242C192.555 43.242 191.816 42.9094 191.199 42.2144L189.703 43.5416C190.7 44.6652 191.984 45.242 193.487 45.242V43.242ZM191.21 42.2272C190.596 41.5105 190.263 40.5933 190.263 39.402H188.263C188.263 40.9973 188.722 42.3975 189.692 43.5288L191.21 42.2272ZM197.171 38.632C197.171 37.486 196.981 36.45 196.452 35.6756C195.877 34.8328 195 34.442 193.993 34.442V36.442C194.438 36.442 194.65 36.5829 194.801 36.8034C194.998 37.0924 195.171 37.6513 195.171 38.632H197.171ZM193.993 34.442C192.997 34.442 192.103 34.7852 191.496 35.5863C190.929 36.3349 190.727 37.339 190.727 38.434H192.727C192.727 37.5344 192.902 37.0424 193.091 36.7937C193.239 36.5975 193.478 36.442 193.993 36.442V34.442ZM190.727 38.434C190.727 39.5975 190.963 40.6456 191.555 41.463L193.175 40.289C192.917 39.9331 192.727 39.3532 192.727 38.434H190.727ZM191.555 41.463C192.158 42.2935 193.008 42.756 194.037 42.756V40.756C193.687 40.756 193.423 40.6319 193.175 40.289L191.555 41.463ZM194.037 42.756C195.032 42.756 195.893 42.3589 196.453 41.5187L194.789 40.4093C194.645 40.6251 194.45 40.756 194.037 40.756V42.756ZM196.45 41.5239C196.974 40.7483 197.171 39.7425 197.171 38.632H195.171C195.171 39.5455 195.002 40.0943 194.793 40.4041L196.45 41.5239ZM209.94 41.25L208.963 41.4599L209.132 42.25H209.94V41.25ZM210.226 41.25V42.25H211.02L211.2 41.4775L210.226 41.25ZM210.93 38.236L211.904 38.4635L211.907 38.4528L211.909 38.442L210.93 38.236ZM212.074 32.802L212.196 31.8095L211.285 31.6974L211.096 32.596L212.074 32.802ZM214.758 33.132L215.718 33.4144L216.051 32.2833L214.88 32.1395L214.758 33.132ZM213.152 38.588L212.193 38.3056L212.189 38.3206L212.185 38.3357L213.152 38.588ZM211.81 43.736L211.901 44.7318L212.601 44.6679L212.778 43.9883L211.81 43.736ZM208.202 44.066L207.227 44.2868L207.421 45.1417L208.293 45.0618L208.202 44.066ZM206.992 38.72L207.968 38.4992L207.959 38.4601L207.947 38.4217L206.992 38.72ZM206.882 38.368L207.837 38.0697L206.82 34.8171L205.918 38.1032L206.882 38.368ZM205.408 43.736L205.502 44.7316L206.19 44.6667L206.373 44.0008L205.408 43.736ZM201.91 44.066L200.938 44.2982L201.139 45.1432L202.004 45.0616L201.91 44.066ZM200.634 38.72L201.607 38.4878L201.602 38.4672L201.596 38.4468L200.634 38.72ZM199.116 33.374L198.929 32.3917L197.856 32.5965L198.154 33.6472L199.116 33.374ZM201.998 32.824L202.981 32.6408L202.797 31.6535L201.811 31.8417L201.998 32.824ZM202.9 37.664L201.917 37.8472L201.92 37.8635L201.924 37.8797L202.9 37.664ZM203.692 41.25L202.716 41.4657L202.889 42.25H203.692V41.25ZM203.978 41.25V42.25H204.721L204.936 41.5389L203.978 41.25ZM205.87 34.98L206.828 35.2689L206.913 34.9868L206.831 34.7035L205.87 34.98ZM205.408 33.374L205.218 32.3923L204.145 32.6002L204.447 33.6505L205.408 33.374ZM208.246 32.824L209.229 32.6365L209.041 31.6515L208.056 31.8423L208.246 32.824ZM209.17 37.664L208.188 37.8515L208.19 37.8628L208.193 37.8739L209.17 37.664ZM209.94 42.25H210.226V40.25H209.94V42.25ZM211.2 41.4775L211.904 38.4635L209.957 38.0085L209.253 41.0225L211.2 41.4775ZM211.909 38.442L213.053 33.008L211.096 32.596L209.952 38.03L211.909 38.442ZM211.952 33.7945L214.636 34.1245L214.88 32.1395L212.196 31.8095L211.952 33.7945ZM213.799 32.8496L212.193 38.3056L214.112 38.8704L215.718 33.4144L213.799 32.8496ZM212.185 38.3357L210.843 43.4837L212.778 43.9883L214.12 38.8403L212.185 38.3357ZM211.719 42.7402L208.111 43.0702L208.293 45.0618L211.901 44.7318L211.719 42.7402ZM209.178 43.8452L207.968 38.4992L206.017 38.9408L207.227 44.2868L209.178 43.8452ZM207.947 38.4217L207.837 38.0697L205.928 38.6663L206.038 39.0183L207.947 38.4217ZM205.918 38.1032L204.444 43.4712L206.373 44.0008L207.847 38.6328L205.918 38.1032ZM205.314 42.7404L201.816 43.0704L202.004 45.0616L205.502 44.7316L205.314 42.7404ZM202.883 43.8338L201.607 38.4878L199.662 38.9522L200.938 44.2982L202.883 43.8338ZM201.596 38.4468L200.078 33.1008L198.154 33.6472L199.672 38.9932L201.596 38.4468ZM199.304 34.3563L202.186 33.8063L201.811 31.8417L198.929 32.3917L199.304 34.3563ZM201.015 33.0072L201.917 37.8472L203.883 37.4808L202.981 32.6408L201.015 33.0072ZM201.924 37.8797L202.716 41.4657L204.669 41.0343L203.877 37.4483L201.924 37.8797ZM203.692 42.25H203.978V40.25H203.692V42.25ZM204.936 41.5389L206.828 35.2689L204.913 34.6911L203.021 40.9611L204.936 41.5389ZM206.831 34.7035L206.369 33.0975L204.447 33.6505L204.909 35.2565L206.831 34.7035ZM205.599 34.3557L208.437 33.8057L208.056 31.8423L205.218 32.3923L205.599 34.3557ZM207.264 33.0115L208.188 37.8515L210.153 37.4765L209.229 32.6365L207.264 33.0115ZM208.193 37.8739L208.963 41.4599L210.918 41.0401L210.148 37.4541L208.193 37.8739ZM219.772 40.282L219.235 41.1257L219.244 41.131L219.252 41.1362L219.772 40.282ZM218.562 39.666L218.161 40.5822L218.172 40.5866L218.562 39.666ZM217.132 38.984L216.642 39.8556L216.658 39.8646L216.674 39.873L217.132 38.984ZM215.922 37.906L215.107 38.4847L215.113 38.4934L215.119 38.5018L215.922 37.906ZM216.736 33.77L216.09 33.0071L216.736 33.77ZM221.268 32.868L221.012 33.8347L221.029 33.8391L221.045 33.8429L221.268 32.868ZM222.742 33.44L223.619 33.9214L224.095 33.0537L223.232 32.5684L222.742 33.44ZM221.268 36.124L220.617 36.8833L221.552 37.6844L222.145 36.6054L221.268 36.124ZM219.948 35.288L219.501 36.1824L219.519 36.1912L219.537 36.1994L219.948 35.288ZM217.968 35.2L218.608 35.9682L218.614 35.9634L217.968 35.2ZM218.452 36.652L217.964 37.5249L217.979 37.5334L217.995 37.5413L218.452 36.652ZM220.124 37.4L219.761 38.3316L219.771 38.3355L219.781 38.3391L220.124 37.4ZM221.774 38.522L221.047 39.2086L221.057 39.219L221.067 39.2291L221.774 38.522ZM221.268 43.076L220.594 42.3378L220.587 42.3437L221.268 43.076ZM216.384 43.78L215.928 44.6701L215.937 44.6744L216.384 43.78ZM215.086 42.856L214.327 43.5068L215.086 42.856ZM214.69 42.394L213.931 41.7425L213.373 42.3934L213.931 43.0448L214.69 42.394ZM216.428 40.37L217.228 39.77L216.481 38.7736L215.669 39.7185L216.428 40.37ZM216.802 40.81L217.539 40.1343L216.802 40.81ZM217.748 41.514L217.218 42.3621L217.23 42.3692L217.748 41.514ZM219.134 42.954C219.642 42.954 220.209 42.8445 220.655 42.45C221.124 42.0349 221.278 41.4674 221.278 40.942H219.278C219.278 41.0189 219.267 41.0424 219.271 41.0321C219.273 41.0263 219.279 41.0136 219.29 40.9974C219.301 40.9809 219.315 40.9653 219.33 40.952C219.361 40.9241 219.378 40.9238 219.352 40.9316C219.322 40.9403 219.254 40.954 219.134 40.954V42.954ZM221.278 40.942C221.278 40.1692 220.719 39.6877 220.292 39.4278L219.252 41.1362C219.301 41.1661 219.332 41.1893 219.35 41.2042C219.368 41.2193 219.368 41.2218 219.358 41.2094C219.348 41.1964 219.327 41.1656 219.309 41.1166C219.29 41.0658 219.278 41.006 219.278 40.942H221.278ZM220.309 39.4383C219.926 39.1947 219.47 38.9649 218.953 38.7454L218.172 40.5866C218.622 40.7777 218.973 40.9586 219.235 41.1257L220.309 39.4383ZM218.963 38.7498C218.514 38.5535 218.057 38.3353 217.59 38.095L216.674 39.873C217.176 40.1314 217.672 40.3679 218.161 40.5822L218.963 38.7498ZM217.622 38.1124C217.282 37.9209 216.983 37.6579 216.725 37.3102L215.119 38.5018C215.536 39.0635 216.044 39.5191 216.642 39.8556L217.622 38.1124ZM216.738 37.3273C216.542 37.0509 216.438 36.7348 216.438 36.344H214.438C214.438 37.1265 214.657 37.8518 215.107 38.4847L216.738 37.3273ZM216.438 36.344C216.438 35.7022 216.703 35.1089 217.383 34.5329L216.09 33.0071C215.039 33.8978 214.438 35.0205 214.438 36.344H216.438ZM217.383 34.5329C218.068 33.9519 218.837 33.67 219.728 33.67V31.67C218.361 31.67 217.135 32.1214 216.09 33.0071L217.383 34.5329ZM219.728 33.67C220.172 33.67 220.599 33.7253 221.012 33.8347L221.524 31.9013C220.94 31.7467 220.34 31.67 219.728 31.67V33.67ZM221.045 33.8429C221.463 33.9383 221.864 34.0936 222.252 34.3116L223.232 32.5684C222.681 32.2584 222.1 32.0324 221.491 31.8931L221.045 33.8429ZM221.866 32.9586L220.392 35.6426L222.145 36.6054L223.619 33.9214L221.866 32.9586ZM221.919 35.3647C221.808 35.2699 221.67 35.1546 221.505 35.02L220.239 36.568C220.397 36.6974 220.523 36.8021 220.617 36.8833L221.919 35.3647ZM221.505 35.02C221.232 34.7963 220.814 34.5819 220.36 34.3766L219.537 36.1994C219.991 36.4047 220.19 36.5277 220.239 36.568L221.505 35.02ZM220.395 34.3936C219.868 34.1301 219.317 33.958 218.76 33.958V35.958C218.908 35.958 219.148 36.0059 219.501 36.1824L220.395 34.3936ZM218.76 33.958C218.27 33.958 217.748 34.0762 217.322 34.4366L218.614 35.9634C218.595 35.9792 218.585 35.9797 218.601 35.9749C218.62 35.969 218.669 35.958 218.76 35.958V33.958ZM217.328 34.4318C216.875 34.8094 216.704 35.3331 216.704 35.838H218.704C218.704 35.8029 218.71 35.8143 218.694 35.8519C218.686 35.8707 218.675 35.8924 218.659 35.9145C218.642 35.9365 218.625 35.9545 218.608 35.9682L217.328 34.4318ZM216.704 35.838C216.704 36.305 216.928 36.6692 217.155 36.9161C217.38 37.1607 217.667 37.359 217.964 37.5249L218.94 35.7791C218.844 35.7252 218.771 35.6781 218.717 35.6387C218.663 35.5989 218.637 35.5728 218.628 35.5629C218.605 35.5385 218.704 35.635 218.704 35.838H216.704ZM217.995 37.5413C218.542 37.8227 219.131 38.0859 219.761 38.3316L220.488 36.4684C219.915 36.2448 219.389 36.0093 218.91 35.7627L217.995 37.5413ZM219.781 38.3391C220.218 38.4991 220.641 38.7782 221.047 39.2086L222.501 37.8354C221.91 37.2098 221.233 36.7409 220.468 36.4609L219.781 38.3391ZM221.067 39.2291C221.395 39.557 221.544 39.9196 221.544 40.37H223.544C223.544 39.3831 223.18 38.5136 222.481 37.8149L221.067 39.2291ZM221.544 40.37C221.544 41.0798 221.265 41.7242 220.594 42.3378L221.943 43.8142C222.973 42.8731 223.544 41.7135 223.544 40.37H221.544ZM220.587 42.3437C219.929 42.9561 219.201 43.242 218.364 43.242V45.242C219.727 45.242 220.936 44.7505 221.949 43.8083L220.587 42.3437ZM218.364 43.242C217.812 43.242 217.305 43.1226 216.831 42.8856L215.937 44.6744C216.695 45.0534 217.508 45.242 218.364 45.242V43.242ZM216.84 42.89C216.288 42.607 215.987 42.3702 215.845 42.2052L214.327 43.5068C214.714 43.9578 215.278 44.337 215.928 44.67L216.84 42.89ZM215.845 42.2052L215.449 41.7432L213.931 43.0448L214.327 43.5068L215.845 42.2052ZM215.449 43.0455L217.187 41.0215L215.669 39.7185L213.931 41.7425L215.449 43.0455ZM215.628 40.97C215.744 41.1247 215.893 41.2985 216.065 41.4857L217.539 40.1343C217.388 39.9695 217.288 39.85 217.228 39.77L215.628 40.97ZM216.065 41.4857C216.327 41.7711 216.746 42.0669 217.218 42.362L218.278 40.666C217.812 40.3744 217.6 40.2009 217.539 40.1343L216.065 41.4857ZM217.23 42.3692C217.826 42.7306 218.466 42.954 219.134 42.954V40.954C218.922 40.954 218.638 40.8841 218.266 40.6588L217.23 42.3692ZM229.364 41.426L228.94 40.5205L229.364 41.426ZM230.464 40.766L229.824 39.9978L230.464 40.766ZM230.86 40.436L231.633 39.8013L230.994 39.0231L230.22 39.6678L230.86 40.436ZM231.872 41.668L232.734 42.175L233.088 41.573L232.645 41.0333L231.872 41.668ZM231.19 42.526L230.467 41.8355L231.19 42.526ZM230.244 43.362L230.826 44.1758L230.833 44.1707L230.244 43.362ZM228.99 43.978L229.315 44.9239L229.322 44.9213L229.33 44.9186L228.99 43.978ZM224.48 42.9L223.708 43.5353L223.713 43.5414L224.48 42.9ZM224.92 34.694L225.712 35.305L224.92 34.694ZM231.058 33.572L230.343 34.2704L230.351 34.2791L231.058 33.572ZM231.63 38.302L232.355 38.9917L232.53 38.807L232.596 38.5607L231.63 38.302ZM231.19 38.764L231.282 39.7598L231.656 39.7254L231.915 39.4537L231.19 38.764ZM225.69 39.27L225.599 38.2742L224.544 38.3713L224.702 39.4188L225.69 39.27ZM226.394 35.728L227.154 36.3789L227.163 36.3682L226.394 35.728ZM225.624 37.708L224.628 37.6175L224.516 38.8525L225.747 38.7005L225.624 37.708ZM229.364 37.246L229.487 38.2385L230.256 38.1435L230.356 37.3753L229.364 37.246ZM228.022 42.756C228.623 42.756 229.215 42.6004 229.789 42.3315L228.94 40.5205C228.575 40.6916 228.273 40.756 228.022 40.756V42.756ZM229.789 42.3315C230.301 42.0915 230.751 41.8292 231.105 41.5342L229.824 39.9978C229.65 40.1428 229.367 40.3205 228.94 40.5205L229.789 42.3315ZM231.105 41.5342L231.501 41.2042L230.22 39.6678L229.824 39.9978L231.105 41.5342ZM230.088 41.0707L231.1 42.3027L232.645 41.0333L231.633 39.8013L230.088 41.0707ZM231.01 41.161C230.918 41.3185 230.747 41.542 230.467 41.8355L231.914 43.2165C232.25 42.8647 232.534 42.5161 232.734 42.175L231.01 41.161ZM230.467 41.8355C230.196 42.1198 229.925 42.3577 229.656 42.5533L230.833 44.1707C231.209 43.8969 231.569 43.5775 231.914 43.2165L230.467 41.8355ZM229.663 42.5483C229.456 42.6962 229.13 42.8644 228.651 43.0374L229.33 44.9186C229.907 44.7103 230.417 44.4678 230.826 44.1757L229.663 42.5483ZM228.666 43.0321C228.26 43.1713 227.834 43.242 227.384 43.242V45.242C228.049 45.242 228.694 45.1367 229.315 44.9239L228.666 43.0321ZM227.384 43.242C226.486 43.242 225.801 42.9211 225.248 42.2586L223.713 43.5414C224.655 44.6682 225.907 45.242 227.384 45.242V43.242ZM225.253 42.2647C224.681 41.5696 224.358 40.643 224.358 39.402H222.358C222.358 41.0063 222.784 42.4117 223.708 43.5353L225.253 42.2647ZM224.358 39.402C224.358 37.8219 224.813 36.4701 225.712 35.305L224.129 34.083C222.945 35.6165 222.358 37.4034 222.358 39.402H224.358ZM225.712 35.305C226.611 34.1401 227.559 33.67 228.572 33.67V31.67C226.8 31.67 225.312 32.5492 224.129 34.083L225.712 35.305ZM228.572 33.67C229.451 33.67 229.992 33.9113 230.343 34.2703L231.774 32.8737C230.951 32.03 229.835 31.67 228.572 31.67V33.67ZM230.351 34.2791C230.717 34.6448 230.96 35.205 230.96 36.102H232.96C232.96 34.8283 232.602 33.7019 231.765 32.8649L230.351 34.2791ZM230.96 36.102C230.96 36.6374 230.869 37.2813 230.664 38.0433L232.596 38.5607C232.832 37.68 232.96 36.8573 232.96 36.102H230.96ZM230.906 37.6123L230.466 38.0743L231.915 39.4537L232.355 38.9917L230.906 37.6123ZM231.099 37.7682L225.599 38.2742L225.782 40.2658L231.282 39.7598L231.099 37.7682ZM224.702 39.4188C224.843 40.3577 225.152 41.2013 225.731 41.8187C226.338 42.4652 227.138 42.756 228.022 42.756V40.756C227.601 40.756 227.361 40.6325 227.19 40.4503C226.991 40.239 226.787 39.8396 226.679 39.1212L224.702 39.4188ZM228.022 33.936C227.059 33.936 226.242 34.3488 225.626 35.0878L227.163 36.3682C227.427 36.0512 227.695 35.936 228.022 35.936V33.936ZM225.635 35.0772C225.035 35.7774 224.717 36.6459 224.628 37.6175L226.62 37.7985C226.679 37.1568 226.874 36.7053 227.154 36.3788L225.635 35.0772ZM225.747 38.7005L229.487 38.2385L229.242 36.2535L225.502 36.7155L225.747 38.7005ZM230.356 37.3753C230.403 37.0156 230.43 36.6899 230.43 36.41H228.43C228.43 36.5701 228.414 36.8018 228.373 37.1167L230.356 37.3753ZM230.43 36.41C230.43 35.7757 230.28 35.1143 229.801 34.6138C229.315 34.1046 228.658 33.936 228.022 33.936V35.936C228.173 35.936 228.262 35.956 228.309 35.9723C228.331 35.9801 228.343 35.9869 228.348 35.9901C228.353 35.9931 228.355 35.9947 228.355 35.9952C228.356 35.9958 228.359 35.9994 228.365 36.009C228.37 36.019 228.38 36.0377 228.39 36.0685C228.41 36.1323 228.43 36.2408 228.43 36.41H230.43Z" fill="#18192B" mask="url(#path-3-outside-1_1_485)"/>
</g>
<defs>
<filter id="filter0_bd_1_485" x="-20" y="-10" width="398" height="98" filterUnits="userSpaceOnUse" color-interpolation-filters="sRGB">
<feFlood flood-opacity="0" result="BackgroundImageFix"/>
<feGaussianBlur in="BackgroundImageFix" stdDeviation="10"/>
<feComposite in2="SourceAlpha" operator="in" result="effect1_backgroundBlur_1_485"/>
<feColorMatrix in="SourceAlpha" type="matrix" values="0 0 0 0 0 0 0 0 0 0 0 0 0 0 0 0 0 0 127 0" result="hardAlpha"/>
<feOffset dy="10"/>
<feGaussianBlur stdDeviation="10"/>
<feColorMatrix type="matrix" values="0 0 0 0 0 0 0 0 0 0 0 0 0 0 0 0 0 0 0.29947 0"/>
<feBlend mode="normal" in2="effect1_backgroundBlur_1_485" result="effect2_dropShadow_1_485"/>
<feBlend mode="normal" in="SourceGraphic" in2="effect2_dropShadow_1_485" result="shape"/>
</filter>
<linearGradient id="paint0_linear_1_485" x1="0" y1="10" x2="0" y2="58" gradientUnits="userSpaceOnUse">
<stop stop-color="#313A5B" stop-opacity="0"/>
<stop offset="0.447761" stop-color="#313A5B"/>
<stop offset="0.451493" stop-color="#313A5B" stop-opacity="0.222222"/>
<stop offset="1" stop-color="#21273D"/>
</linearGradient>
</defs>
</svg>
