<svg width="118" height="38" viewBox="0 0 118 38" fill="none" xmlns="http://www.w3.org/2000/svg">
<g filter="url(#filter0_d_94_43)">
<rect x="4" width="110" height="30" rx="10" fill="url(#paint0_linear_94_43)"/>
<path d="M26.4026 8.8H28.3226V20H26.4026V8.8ZM30.0186 20H27.5706V18.224H29.9706C30.5252 18.224 31.0372 18.144 31.5066 17.984C31.9759 17.824 32.3812 17.584 32.7226 17.264C33.0746 16.944 33.3466 16.544 33.5386 16.064C33.7412 15.584 33.8426 15.0293 33.8426 14.4C33.8426 13.7707 33.7412 13.216 33.5386 12.736C33.3466 12.256 33.0746 11.856 32.7226 11.536C32.3812 11.216 31.9759 10.976 31.5066 10.816C31.0372 10.656 30.5252 10.576 29.9706 10.576H27.5706V8.8H30.0186C31.1599 8.8 32.1626 9.03467 33.0266 9.504C33.8906 9.96267 34.5626 10.6133 35.0426 11.456C35.5332 12.288 35.7786 13.2693 35.7786 14.4C35.7786 15.5307 35.5332 16.5173 35.0426 17.36C34.5626 18.192 33.8906 18.8427 33.0266 19.312C32.1626 19.7707 31.1599 20 30.0186 20ZM36.5093 16.32C36.5093 15.5627 36.68 14.896 37.0213 14.32C37.3733 13.744 37.848 13.296 38.4453 12.976C39.0426 12.6453 39.72 12.48 40.4773 12.48C41.2346 12.48 41.9066 12.6453 42.4933 12.976C43.0906 13.296 43.5653 13.744 43.9173 14.32C44.2693 14.896 44.4453 15.5627 44.4453 16.32C44.4453 17.0667 44.2693 17.7333 43.9173 18.32C43.5653 18.896 43.0906 19.3493 42.4933 19.68C41.9066 20 41.2346 20.16 40.4773 20.16C39.72 20.16 39.0426 20 38.4453 19.68C37.848 19.3493 37.3733 18.896 37.0213 18.32C36.68 17.7333 36.5093 17.0667 36.5093 16.32ZM38.2853 16.32C38.2853 16.7787 38.3813 17.184 38.5733 17.536C38.7653 17.8773 39.0266 18.1493 39.3573 18.352C39.688 18.544 40.0613 18.64 40.4773 18.64C40.8826 18.64 41.2506 18.544 41.5813 18.352C41.9226 18.1493 42.1893 17.8773 42.3813 17.536C42.5733 17.184 42.6693 16.7787 42.6693 16.32C42.6693 15.8613 42.5733 15.456 42.3813 15.104C42.1893 14.752 41.9226 14.48 41.5813 14.288C41.2506 14.096 40.8826 14 40.4773 14C40.0613 14 39.688 14.096 39.3573 14.288C39.0266 14.48 38.7653 14.752 38.5733 15.104C38.3813 15.456 38.2853 15.8613 38.2853 16.32ZM44.3386 12.64H46.2106L47.9386 17.024L49.9706 12.08L52.1306 17.04L53.8586 12.64H55.7306L52.2906 20.528L49.9866 15.552L47.7786 20.528L44.3386 12.64ZM61.1612 15.52C61.1612 14.976 61.0492 14.5653 60.8252 14.288C60.6012 14.0107 60.2545 13.872 59.7852 13.872C59.4652 13.872 59.1825 13.9413 58.9372 14.08C58.6919 14.208 58.4999 14.4 58.3612 14.656C58.2225 14.9013 58.1532 15.1893 58.1532 15.52V20H56.4252V12.64H58.1532V13.776C58.3879 13.3387 58.6865 13.0133 59.0492 12.8C59.4225 12.5867 59.8652 12.48 60.3772 12.48C61.2092 12.48 61.8439 12.736 62.2812 13.248C62.7185 13.7493 62.9372 14.4427 62.9372 15.328V20H61.1612V15.52ZM64.7359 7.52H66.4639V20H64.7359V7.52ZM67.7054 16.32C67.7054 15.5627 67.8761 14.896 68.2174 14.32C68.5694 13.744 69.0441 13.296 69.6414 12.976C70.2388 12.6453 70.9161 12.48 71.6734 12.48C72.4308 12.48 73.1028 12.6453 73.6894 12.976C74.2868 13.296 74.7614 13.744 75.1134 14.32C75.4654 14.896 75.6414 15.5627 75.6414 16.32C75.6414 17.0667 75.4654 17.7333 75.1134 18.32C74.7614 18.896 74.2868 19.3493 73.6894 19.68C73.1028 20 72.4308 20.16 71.6734 20.16C70.9161 20.16 70.2388 20 69.6414 19.68C69.0441 19.3493 68.5694 18.896 68.2174 18.32C67.8761 17.7333 67.7054 17.0667 67.7054 16.32ZM69.4814 16.32C69.4814 16.7787 69.5774 17.184 69.7694 17.536C69.9614 17.8773 70.2228 18.1493 70.5534 18.352C70.8841 18.544 71.2574 18.64 71.6734 18.64C72.0788 18.64 72.4468 18.544 72.7774 18.352C73.1188 18.1493 73.3854 17.8773 73.5774 17.536C73.7694 17.184 73.8654 16.7787 73.8654 16.32C73.8654 15.8613 73.7694 15.456 73.5774 15.104C73.3854 14.752 73.1188 14.48 72.7774 14.288C72.4468 14.096 72.0788 14 71.6734 14C71.2574 14 70.8841 14.096 70.5534 14.288C70.2228 14.48 69.9614 14.752 69.7694 15.104C69.5774 15.456 69.4814 15.8613 69.4814 16.32ZM77.9611 17.712C77.9611 17.9573 78.0197 18.1707 78.1371 18.352C78.2544 18.5227 78.4144 18.6507 78.6171 18.736C78.8304 18.8213 79.0704 18.864 79.3371 18.864C79.6784 18.864 79.9877 18.7947 80.2651 18.656C80.5531 18.5173 80.7824 18.3147 80.9531 18.048C81.1344 17.7707 81.2251 17.4507 81.2251 17.088L81.4811 18.048C81.4811 18.5173 81.3424 18.912 81.0651 19.232C80.7984 19.5413 80.4571 19.776 80.0411 19.936C79.6357 20.0853 79.2197 20.16 78.7931 20.16C78.3344 20.16 77.9077 20.0693 77.5131 19.888C77.1184 19.7067 76.8037 19.44 76.5691 19.088C76.3344 18.736 76.2171 18.3093 76.2171 17.808C76.2171 17.0933 76.4677 16.528 76.9691 16.112C77.4704 15.6853 78.1797 15.472 79.0971 15.472C79.5877 15.472 80.0091 15.5253 80.3611 15.632C80.7237 15.7387 81.0224 15.8667 81.2571 16.016C81.4917 16.1547 81.6571 16.2827 81.7531 16.4V17.28C81.4224 17.0453 81.0704 16.8747 80.6971 16.768C80.3237 16.6613 79.9291 16.608 79.5131 16.608C79.1504 16.608 78.8571 16.656 78.6331 16.752C78.4091 16.8373 78.2384 16.96 78.1211 17.12C78.0144 17.28 77.9611 17.4773 77.9611 17.712ZM77.4171 14.56L76.7131 13.344C77.0437 13.1413 77.4704 12.944 77.9931 12.752C78.5264 12.56 79.1344 12.464 79.8171 12.464C80.4251 12.464 80.9584 12.5547 81.4171 12.736C81.8864 12.9173 82.2544 13.1787 82.5211 13.52C82.7877 13.8507 82.9211 14.2613 82.9211 14.752V20H81.2251V15.088C81.2251 14.8533 81.1824 14.6613 81.0971 14.512C81.0224 14.3627 80.9157 14.24 80.7771 14.144C80.6384 14.048 80.4731 13.9787 80.2811 13.936C80.0891 13.8933 79.8811 13.872 79.6571 13.872C79.3157 13.872 78.9904 13.9147 78.6811 14C78.3824 14.0747 78.1211 14.1707 77.8971 14.288C77.6837 14.3947 77.5237 14.4853 77.4171 14.56ZM90.0636 7.52H91.8076V20H90.0636V7.52ZM83.9676 16.32C83.9676 15.5093 84.1329 14.8213 84.4636 14.256C84.7942 13.68 85.2316 13.2427 85.7756 12.944C86.3302 12.6347 86.9222 12.48 87.5516 12.48C88.1702 12.48 88.7089 12.6347 89.1676 12.944C89.6369 13.2533 90.0049 13.696 90.2716 14.272C90.5489 14.8373 90.6876 15.52 90.6876 16.32C90.6876 17.1093 90.5489 17.792 90.2716 18.368C90.0049 18.944 89.6369 19.3867 89.1676 19.696C88.7089 20.0053 88.1702 20.16 87.5516 20.16C86.9222 20.16 86.3302 20.0107 85.7756 19.712C85.2316 19.4027 84.7942 18.96 84.4636 18.384C84.1329 17.808 83.9676 17.12 83.9676 16.32ZM85.7596 16.32C85.7596 16.8107 85.8609 17.232 86.0636 17.584C86.2662 17.936 86.5329 18.2027 86.8636 18.384C87.2049 18.5653 87.5729 18.656 87.9676 18.656C88.2982 18.656 88.6236 18.5653 88.9436 18.384C89.2742 18.2027 89.5409 17.9413 89.7436 17.6C89.9569 17.248 90.0636 16.8213 90.0636 16.32C90.0636 15.8187 89.9569 15.3973 89.7436 15.056C89.5409 14.704 89.2742 14.4373 88.9436 14.256C88.6236 14.0747 88.2982 13.984 87.9676 13.984C87.5729 13.984 87.2049 14.0747 86.8636 14.256C86.5329 14.4373 86.2662 14.704 86.0636 15.056C85.8609 15.408 85.7596 15.8293 85.7596 16.32Z" fill="white"/>
</g>
<defs>
<filter id="filter0_d_94_43" x="0" y="0" width="118" height="38" filterUnits="userSpaceOnUse" color-interpolation-filters="sRGB">
<feFlood flood-opacity="0" result="BackgroundImageFix"/>
<feColorMatrix in="SourceAlpha" type="matrix" values="0 0 0 0 0 0 0 0 0 0 0 0 0 0 0 0 0 0 127 0" result="hardAlpha"/>
<feOffset dy="4"/>
<feGaussianBlur stdDeviation="2"/>
<feComposite in2="hardAlpha" operator="out"/>
<feColorMatrix type="matrix" values="0 0 0 0 0 0 0 0 0 0 0 0 0 0 0 0 0 0 0.25 0"/>
<feBlend mode="normal" in2="BackgroundImageFix" result="effect1_dropShadow_94_43"/>
<feBlend mode="normal" in="SourceGraphic" in2="effect1_dropShadow_94_43" result="shape"/>
</filter>
<linearGradient id="paint0_linear_94_43" x1="59" y1="0" x2="59" y2="30" gradientUnits="userSpaceOnUse">
<stop stop-color="#158A2F"/>
<stop offset="1" stop-color="#158A2F" stop-opacity="0"/>
</linearGradient>
</defs>
</svg>
