<svg width="118" height="37" viewBox="0 0 118 37" fill="none" xmlns="http://www.w3.org/2000/svg">
<g filter="url(#filter0_d_94_42)">
<path d="M4 10C4 4.47715 8.47715 0 14 0H104C109.523 0 114 4.47715 114 10V20C114 25.5228 109.523 30 104 30H14C8.47715 30 4 25.5228 4 20V10Z" fill="url(#paint0_linear_94_42)"/>
<path d="M27.6074 8.8H29.4954V20H27.6074V8.8ZM28.7274 10.464V8.8H30.9834C31.7941 8.8 32.4981 8.944 33.0954 9.232C33.7034 9.50933 34.1728 9.90933 34.5034 10.432C34.8341 10.944 34.9994 11.5573 34.9994 12.272C34.9994 12.9867 34.8341 13.6053 34.5034 14.128C34.1728 14.6507 33.7034 15.056 33.0954 15.344C32.4981 15.6213 31.7941 15.76 30.9834 15.76H28.7274V14.096H30.9834C31.6341 14.096 32.1568 13.9413 32.5514 13.632C32.9461 13.3227 33.1434 12.8693 33.1434 12.272C33.1434 11.6747 32.9461 11.2267 32.5514 10.928C32.1568 10.6187 31.6341 10.464 30.9834 10.464H28.7274Z" fill="white"/>
<path d="M36.9091 17.712C36.9091 17.9573 36.9677 18.1707 37.0851 18.352C37.2024 18.5227 37.3624 18.6507 37.5651 18.736C37.7784 18.8213 38.0184 18.864 38.2851 18.864C38.6264 18.864 38.9357 18.7947 39.2131 18.656C39.5011 18.5173 39.7304 18.3147 39.9011 18.048C40.0824 17.7707 40.1731 17.4507 40.1731 17.088L40.4291 18.048C40.4291 18.5173 40.2904 18.912 40.0131 19.232C39.7464 19.5413 39.4051 19.776 38.9891 19.936C38.5837 20.0853 38.1677 20.16 37.7411 20.16C37.2824 20.16 36.8557 20.0693 36.4611 19.888C36.0664 19.7067 35.7517 19.44 35.5171 19.088C35.2824 18.736 35.1651 18.3093 35.1651 17.808C35.1651 17.0933 35.4157 16.528 35.9171 16.112C36.4184 15.6853 37.1277 15.472 38.0451 15.472C38.5357 15.472 38.9571 15.5253 39.3091 15.632C39.6717 15.7387 39.9704 15.8667 40.2051 16.016C40.4397 16.1547 40.6051 16.2827 40.7011 16.4V17.28C40.3704 17.0453 40.0184 16.8747 39.6451 16.768C39.2717 16.6613 38.8771 16.608 38.4611 16.608C38.0984 16.608 37.8051 16.656 37.5811 16.752C37.3571 16.8373 37.1864 16.96 37.0691 17.12C36.9624 17.28 36.9091 17.4773 36.9091 17.712ZM36.3651 14.56L35.6611 13.344C35.9917 13.1413 36.4184 12.944 36.9411 12.752C37.4744 12.56 38.0824 12.464 38.7651 12.464C39.3731 12.464 39.9064 12.5547 40.3651 12.736C40.8344 12.9173 41.2024 13.1787 41.4691 13.52C41.7357 13.8507 41.8691 14.2613 41.8691 14.752V20H40.1731V15.088C40.1731 14.8533 40.1304 14.6613 40.0451 14.512C39.9704 14.3627 39.8637 14.24 39.7251 14.144C39.5864 14.048 39.4211 13.9787 39.2291 13.936C39.0371 13.8933 38.8291 13.872 38.6051 13.872C38.2637 13.872 37.9384 13.9147 37.6291 14C37.3304 14.0747 37.0691 14.1707 36.8451 14.288C36.6317 14.3947 36.4717 14.4853 36.3651 14.56Z" fill="white"/>
<path d="M43.8116 17.584C44.0462 17.84 44.2809 18.064 44.5156 18.256C44.7609 18.4373 45.0062 18.576 45.2516 18.672C45.4969 18.7573 45.7422 18.8 45.9876 18.8C46.2969 18.8 46.5369 18.7307 46.7076 18.592C46.8889 18.4533 46.9796 18.2613 46.9796 18.016C46.9796 17.8027 46.9102 17.6213 46.7716 17.472C46.6329 17.312 46.4409 17.1787 46.1956 17.072C45.9502 16.9547 45.6622 16.8373 45.3316 16.72C45.0009 16.592 44.6702 16.4427 44.3396 16.272C44.0196 16.0907 43.7529 15.856 43.5396 15.568C43.3369 15.28 43.2356 14.9173 43.2356 14.48C43.2356 14.032 43.3476 13.6587 43.5716 13.36C43.8062 13.0613 44.1156 12.8427 44.4996 12.704C44.8942 12.5547 45.3156 12.48 45.7636 12.48C46.1689 12.48 46.5476 12.5387 46.8996 12.656C47.2622 12.7733 47.5876 12.928 47.8756 13.12C48.1636 13.312 48.4089 13.5307 48.6116 13.776L47.6516 14.8C47.4062 14.512 47.1129 14.2773 46.7716 14.096C46.4302 13.9147 46.0782 13.824 45.7156 13.824C45.4702 13.824 45.2676 13.8773 45.1076 13.984C44.9476 14.0907 44.8676 14.2453 44.8676 14.448C44.8676 14.6187 44.9369 14.7733 45.0756 14.912C45.2249 15.04 45.4169 15.1573 45.6516 15.264C45.8969 15.3707 46.1689 15.4827 46.4676 15.6C46.8729 15.76 47.2462 15.936 47.5876 16.128C47.9289 16.32 48.2009 16.5547 48.4036 16.832C48.6169 17.1093 48.7236 17.472 48.7236 17.92C48.7236 18.6133 48.4836 19.1733 48.0036 19.6C47.5342 20.016 46.8942 20.224 46.0836 20.224C45.5822 20.224 45.1182 20.1493 44.6916 20C44.2756 19.84 43.9076 19.6373 43.5876 19.392C43.2782 19.136 43.0169 18.8693 42.8036 18.592L43.8116 17.584Z" fill="white"/>
<path d="M48.8248 12.64H53.0008V14.16H48.8248V12.64ZM50.0568 10.08H51.7688V20H50.0568V10.08Z" fill="white"/>
<path d="M56.9846 20.16C56.2379 20.16 55.5766 20 55.0006 19.68C54.4352 19.36 53.9979 18.912 53.6886 18.336C53.3792 17.76 53.2246 17.088 53.2246 16.32C53.2246 15.5413 53.3792 14.864 53.6886 14.288C54.0086 13.712 54.4566 13.2693 55.0326 12.96C55.6086 12.64 56.2859 12.48 57.0646 12.48C57.8432 12.48 58.5046 12.6293 59.0486 12.928C59.5926 13.2267 60.0086 13.6587 60.2966 14.224C60.5952 14.7787 60.7446 15.4507 60.7446 16.24C60.7446 16.3253 60.7392 16.416 60.7286 16.512C60.7286 16.608 60.7232 16.6773 60.7126 16.72H54.2486V15.536H59.2406L58.7126 16.272C58.7446 16.208 58.7766 16.1227 58.8086 16.016C58.8512 15.8987 58.8726 15.8027 58.8726 15.728C58.8726 15.3333 58.7926 14.992 58.6326 14.704C58.4832 14.416 58.2699 14.192 57.9926 14.032C57.7259 13.872 57.4112 13.792 57.0486 13.792C56.6112 13.792 56.2379 13.888 55.9286 14.08C55.6192 14.272 55.3846 14.5493 55.2246 14.912C55.0646 15.2747 54.9792 15.7227 54.9686 16.256C54.9686 16.7893 55.0486 17.2427 55.2086 17.616C55.3686 17.9787 55.6032 18.256 55.9126 18.448C56.2326 18.64 56.6166 18.736 57.0646 18.736C57.5339 18.736 57.9446 18.64 58.2966 18.448C58.6486 18.256 58.9419 17.9627 59.1766 17.568L60.6646 18.176C60.2806 18.8373 59.7846 19.3333 59.1766 19.664C58.5686 19.9947 57.8379 20.16 56.9846 20.16Z" fill="white"/>
<path d="M66.5188 8.8H68.4068V18.304H72.8548V20H66.5188V8.8Z" fill="white"/>
<path d="M73.6059 9.712C73.6059 9.41333 73.7126 9.16267 73.9259 8.96C74.1499 8.75733 74.4059 8.656 74.6939 8.656C75.0033 8.656 75.2593 8.75733 75.4619 8.96C75.6753 9.16267 75.7819 9.41333 75.7819 9.712C75.7819 10 75.6753 10.2507 75.4619 10.464C75.2593 10.6667 75.0033 10.768 74.6939 10.768C74.4059 10.768 74.1499 10.6667 73.9259 10.464C73.7126 10.2507 73.6059 10 73.6059 9.712ZM73.8459 12.64H75.5419V20H73.8459V12.64Z" fill="white"/>
<path d="M82.2479 15.52C82.2479 14.976 82.1359 14.5653 81.9119 14.288C81.6879 14.0107 81.3413 13.872 80.8719 13.872C80.5519 13.872 80.2693 13.9413 80.0239 14.08C79.7786 14.208 79.5866 14.4 79.4479 14.656C79.3093 14.9013 79.2399 15.1893 79.2399 15.52V20H77.5119V12.64H79.2399V13.776C79.4746 13.3387 79.7733 13.0133 80.1359 12.8C80.5093 12.5867 80.9519 12.48 81.4639 12.48C82.2959 12.48 82.9306 12.736 83.3679 13.248C83.8053 13.7493 84.0239 14.4427 84.0239 15.328V20H82.2479V15.52Z" fill="white"/>
<path d="M85.7587 7.52H87.4547V20H85.7587V7.52ZM90.1587 12.64H92.2707L89.1027 15.68L92.5907 20H90.4947L86.9747 15.68L90.1587 12.64Z" fill="white"/>
</g>
<defs>
<filter id="filter0_d_94_42" x="0" y="0" width="118" height="38" filterUnits="userSpaceOnUse" color-interpolation-filters="sRGB">
<feFlood flood-opacity="0" result="BackgroundImageFix"/>
<feColorMatrix in="SourceAlpha" type="matrix" values="0 0 0 0 0 0 0 0 0 0 0 0 0 0 0 0 0 0 127 0" result="hardAlpha"/>
<feOffset dy="4"/>
<feGaussianBlur stdDeviation="2"/>
<feComposite in2="hardAlpha" operator="out"/>
<feColorMatrix type="matrix" values="0 0 0 0 0 0 0 0 0 0 0 0 0 0 0 0 0 0 0.25 0"/>
<feBlend mode="normal" in2="BackgroundImageFix" result="effect1_dropShadow_94_42"/>
<feBlend mode="normal" in="SourceGraphic" in2="effect1_dropShadow_94_42" result="shape"/>
</filter>
<linearGradient id="paint0_linear_94_42" x1="59" y1="0" x2="59" y2="30" gradientUnits="userSpaceOnUse">
<stop stop-color="#4A5065"/>
<stop offset="1" stop-color="#4A5065" stop-opacity="0"/>
</linearGradient>
</defs>
</svg>
